<svg xmlns="http://www.w3.org/2000/svg" viewBox="0 0 119.67 43.33"><defs><style>.cls-1{fill:#001c71;}.cls-2{fill:#80bc00;}.cls-3{fill:#93c01f;}.cls-4{fill:#fff;}</style></defs><g id="Capa_2" data-name="Capa 2"><g id="Capa_1-2" data-name="Capa 1"><path class="cls-1" d="M21.49,43A21.49,21.49,0,0,1,3,10.58a1.17,1.17,0,0,1,2,1.19A19.14,19.14,0,0,0,31.44,37.83a1.17,1.17,0,1,1,1.23,2A21.38,21.38,0,0,1,21.49,43Z"/><path class="cls-1" d="M31,41.92l.27-1.53a1.2,1.2,0,0,0-1-1.38l-1.52-.27a1.19,1.19,0,0,1-.48-2.15h0a1.15,1.15,0,0,1,.9-.2l3.87.69a1.19,1.19,0,0,1,1,1.38l-.69,3.88a1.25,1.25,0,0,1-.49.77h0A1.19,1.19,0,0,1,31,41.92Z"/><path class="cls-2" d="M31.7,29.34a3.69,3.69,0,0,1-3.58-2.84H14.73a3.68,3.68,0,0,1-7.16,0H5.39a1.17,1.17,0,0,1-1.15-1A7.75,7.75,0,0,1,5.67,20a9.39,9.39,0,0,1,6.39-3.37c1.11-1.09,5.07-4.55,10.17-4.38l1.29.05s2.36.11,4.75.29c5.19.41,5.61.78,5.95,1.08s1.05.91,2.35,7.31a1.17,1.17,0,0,1-2.3.46,37.33,37.33,0,0,0-1.6-6,70.56,70.56,0,0,0-9.25-.85l-1.27,0c-4.82-.17-8.63,3.89-8.67,3.93a1.12,1.12,0,0,1-.72.37c-2.42.31-4.17,1.14-5.19,2.48a5.24,5.24,0,0,0-1,2.73H8.67a1.21,1.21,0,0,1,.89.4,1.17,1.17,0,0,1,.27.93,1.28,1.28,0,0,0,0,.18,1.33,1.33,0,1,0,2.66,0,1.41,1.41,0,0,0,0-.18,1.17,1.17,0,0,1,1.17-1.33H29.22a1.18,1.18,0,0,1,.88.4,1.13,1.13,0,0,1,.28.93,1.21,1.21,0,0,0,0,.18,1.33,1.33,0,0,0,2.66,0,1.41,1.41,0,0,0,0-.18,1.22,1.22,0,0,1,.28-.93,1.18,1.18,0,0,1,.88-.4h6.27a19.81,19.81,0,0,0,.18-2.66A19.15,19.15,0,0,0,21.49,2.35a18.9,18.9,0,0,0-8.71,2.09,1.17,1.17,0,0,1-1.07-2.09A21.21,21.21,0,0,1,21.49,0,21.51,21.51,0,0,1,43,21.49a22,22,0,0,1-.38,4.05,1.18,1.18,0,0,1-1.16,1H35.28A3.69,3.69,0,0,1,31.7,29.34Z"/><path class="cls-1" d="M36.18,38.92l.27-1.53a1.18,1.18,0,0,0-1-1.38L34,35.74a1.2,1.2,0,0,1-.47-2.16h0a1.17,1.17,0,0,1,.89-.19l3.88.69a1.19,1.19,0,0,1,1,1.38l-.69,3.88a1.17,1.17,0,0,1-.49.77h0A1.19,1.19,0,0,1,36.18,38.92Z"/><path class="cls-2" d="M45.56,26.68a7.59,7.59,0,0,1,1.1-4,7.87,7.87,0,0,1,3-2.84,8.3,8.3,0,0,1,4.07-1l.67,0a11.62,11.62,0,0,1,2.06.28l.11,0a.55.55,0,0,1,.39.17.56.56,0,0,1,.14.39.82.82,0,0,1-.1.4l-.93,2a1.19,1.19,0,0,1-1.1.88,5.66,5.66,0,0,0-3,.73,3.4,3.4,0,0,0-1.5,2.16,3.7,3.7,0,0,0-.11.88,3.26,3.26,0,0,0,.67,2A3.39,3.39,0,0,0,53,30a7.22,7.22,0,0,0,1.3.13,3.67,3.67,0,0,0,2.3-.65,2.94,2.94,0,0,0,1.11-1.66H56.45a.82.82,0,0,1-.6-.22.77.77,0,0,1-.22-.57V24.19a.74.74,0,0,1,.24-.55.78.78,0,0,1,.58-.24h5.33a.93.93,0,0,1,.64.23.72.72,0,0,1,.25.56l-.05,1.55c0,.17,0,.47,0,.91s-.06.83-.11,1.21a6.61,6.61,0,0,1-1.39,3.41,8.35,8.35,0,0,1-3,2.41A8.9,8.9,0,0,1,50,33.5a8.64,8.64,0,0,1-3.2-2.88A7,7,0,0,1,45.56,26.68Z"/><path class="cls-2" d="M63.2,33.31a2.16,2.16,0,0,1,.12-.71c.09-.24.13-.37.15-.4l5.08-12.05a1.58,1.58,0,0,1,.6-.7,2.07,2.07,0,0,1,.95-.27h3.3a1.86,1.86,0,0,1,1,.3,1.47,1.47,0,0,1,.53.67L80,32.2a3.11,3.11,0,0,0,.14.44,2.09,2.09,0,0,1,.11.63c0,.52-.31.82-.92.9H76.23a1.8,1.8,0,0,1-.81-.16.76.76,0,0,1-.42-.46l-.71-2.14h-5.1l-.71,2.14a.77.77,0,0,1-.41.46,1.76,1.76,0,0,1-.8.16H64.09C63.49,34.09,63.2,33.8,63.2,33.31ZM72,27.79h1.48l-1.8-5-1.79,5Z"/><path class="cls-2" d="M95.4,34a26.92,26.92,0,0,1-2-1.88Q91.55,30.31,88,26.76c-.23-.21-.38-.32-.44-.32a.1.1,0,0,0-.11.1,1.14,1.14,0,0,0,0,.31v6.4a.79.79,0,0,1-.26.6.89.89,0,0,1-.65.26h-3a1,1,0,0,1-.76-.33,1.14,1.14,0,0,1-.32-.79V20.38a1.18,1.18,0,0,1,.35-.83,1.06,1.06,0,0,1,.8-.37h2.83a1.65,1.65,0,0,1,.61.1,2.11,2.11,0,0,1,.56.44L91,23.07c1.58,1.55,2.83,2.75,3.73,3.61a.59.59,0,0,0,.25.1c.09,0,.14-.11.14-.34V20.06a.84.84,0,0,1,.27-.61.86.86,0,0,1,.62-.27h2.9a1.22,1.22,0,0,1,.87.35,1.07,1.07,0,0,1,.37.79V33.06a1.05,1.05,0,0,1-.36.77,1.1,1.1,0,0,1-.81.34H96.36a4.11,4.11,0,0,1-.61,0A1.32,1.32,0,0,1,95.4,34Z"/><path class="cls-2" d="M102,33.31a2.16,2.16,0,0,1,.12-.71,3,3,0,0,1,.15-.4l5.08-12.05a1.58,1.58,0,0,1,.6-.7,2.07,2.07,0,0,1,1-.27h3.3a1.86,1.86,0,0,1,1,.3,1.38,1.38,0,0,1,.52.67l5.13,12.05a4.35,4.35,0,0,0,.13.44,1.84,1.84,0,0,1,.12.63c0,.52-.31.82-.92.9H115a1.8,1.8,0,0,1-.81-.16.76.76,0,0,1-.42-.46l-.71-2.14H108l-.71,2.14a.77.77,0,0,1-.41.46,1.76,1.76,0,0,1-.8.16H102.9C102.3,34.09,102,33.8,102,33.31Zm8.78-5.52h1.48l-1.8-5-1.79,5Z"/><path class="cls-1" d="M46.64,16.28a5.24,5.24,0,0,1-1.38-4,5.23,5.23,0,0,1,1.37-4,5.38,5.38,0,0,1,3.89-1.32,6.15,6.15,0,0,1,1.9.29,5.18,5.18,0,0,1,1.32.6,4.13,4.13,0,0,1,.72.62,1.16,1.16,0,0,1,.26.68,1,1,0,0,1-.34.75,1.13,1.13,0,0,1-.82.31,1.22,1.22,0,0,1-.89-.37,2.92,2.92,0,0,0-2.15-.86,2.31,2.31,0,0,0-1.93.85,3.75,3.75,0,0,0-.68,2.4,3.8,3.8,0,0,0,.68,2.43,2.33,2.33,0,0,0,1.93.84,3.18,3.18,0,0,0,1-.16,3.73,3.73,0,0,0,.74-.31l.64-.42a1.37,1.37,0,0,1,.72-.21,1.17,1.17,0,0,1,.82.3,1,1,0,0,1,.34.75,1,1,0,0,1-.41.81,5.62,5.62,0,0,1-1.56.86,6.26,6.26,0,0,1-2.3.4A5.37,5.37,0,0,1,46.64,16.28Z"/><path class="cls-1" d="M54.89,14.27A2.84,2.84,0,0,1,56,11.88,4.47,4.47,0,0,1,58.81,11H62v-.36a1.27,1.27,0,0,0-.58-1.07,2.79,2.79,0,0,0-1.62-.4,3.64,3.64,0,0,0-1.27.21,6.2,6.2,0,0,0-1.14.59,1.35,1.35,0,0,1-.72.2,1.16,1.16,0,0,1-.81-.3.92.92,0,0,1-.34-.72,1,1,0,0,1,.32-.72,5.35,5.35,0,0,1,4-1.41,5.77,5.77,0,0,1,3.54,1,3.2,3.2,0,0,1,1.26,2.7v5.61a1,1,0,0,1-.38.81,1.29,1.29,0,0,1-.9.35,1.33,1.33,0,0,1-.91-.35,1.08,1.08,0,0,1-.39-.83,3.54,3.54,0,0,1-3.16,1.3A4.21,4.21,0,0,1,56,16.68,3,3,0,0,1,54.89,14.27Zm2.61,0a1.11,1.11,0,0,0,.5,1,2.64,2.64,0,0,0,1.5.34,2.88,2.88,0,0,0,1.74-.53A1.67,1.67,0,0,0,62,13.65V13H59.15a2,2,0,0,0-1.22.32A1,1,0,0,0,57.5,14.27Z"/><path class="cls-1" d="M65.63,16.35v-8A1.07,1.07,0,0,1,66,7.53a1.34,1.34,0,0,1,.92-.35,1.32,1.32,0,0,1,.92.35,1,1,0,0,1,.39.83,3.17,3.17,0,0,1,1.18-.93,4.42,4.42,0,0,1,1.91-.38,5.79,5.79,0,0,1,2.25.37,3,3,0,0,1,1.33,1.06,3.72,3.72,0,0,1,1.43-1.07,5.05,5.05,0,0,1,2-.36,6.18,6.18,0,0,1,1.69.22,3.53,3.53,0,0,1,1.2.57A3.25,3.25,0,0,1,82,8.7a3.58,3.58,0,0,1,.41,1,5.11,5.11,0,0,1,.12,1.14v5.48a1,1,0,0,1-.38.81,1.51,1.51,0,0,1-1.87,0,1.06,1.06,0,0,1-.36-.82v-5A1.87,1.87,0,0,0,77.81,9.2,2.58,2.58,0,0,0,76,9.75a2,2,0,0,0-.59,1.54v5.06a1,1,0,0,1-.38.81,1.35,1.35,0,0,1-.92.33,1.37,1.37,0,0,1-.94-.32,1.06,1.06,0,0,1-.36-.82v-5A1.88,1.88,0,0,0,70.65,9.2c-1.61,0-2.41.75-2.41,2.26v4.89a1,1,0,0,1-.38.82,1.5,1.5,0,0,1-1.85,0A1,1,0,0,1,65.63,16.35Z"/><path class="cls-1" d="M83.62,13.21V2.88A1.1,1.1,0,0,1,84,2a1.33,1.33,0,0,1,.92-.34,1.35,1.35,0,0,1,.93.34,1.1,1.1,0,0,1,.38.84v5a3.37,3.37,0,0,1,1.11-.61,4.67,4.67,0,0,1,1.55-.26,4.85,4.85,0,0,1,3.63,1.33,5.49,5.49,0,0,1,1.29,4,5.28,5.28,0,0,1-1.35,3.95,5.27,5.27,0,0,1-3.85,1.32A5.47,5.47,0,0,1,85,16.47,4,4,0,0,1,83.62,13.21Zm2.61,0A2.31,2.31,0,0,0,86.88,15a2.41,2.41,0,0,0,1.73.63,2.32,2.32,0,0,0,1.93-.82,3.83,3.83,0,0,0,.66-2.43,3.89,3.89,0,0,0-.66-2.45,2.34,2.34,0,0,0-1.93-.82,3,3,0,0,0-1.47.39,5.2,5.2,0,0,0-.49.33,2.47,2.47,0,0,0-.32.29l-.1.1Z"/><path class="cls-1" d="M94.39,4.61c0-1,.52-1.44,1.55-1.44s1.57.48,1.57,1.44a1.3,1.3,0,0,1-.41,1A1.7,1.7,0,0,1,95.94,6a1.58,1.58,0,0,1-1.14-.37A1.29,1.29,0,0,1,94.39,4.61Zm.25,11.7V8.36A1.07,1.07,0,0,1,95,7.53a1.32,1.32,0,0,1,.92-.35,1.36,1.36,0,0,1,.93.35,1.07,1.07,0,0,1,.38.83v8a1.07,1.07,0,0,1-.38.83,1.36,1.36,0,0,1-.93.35,1.32,1.32,0,0,1-.92-.35A1.07,1.07,0,0,1,94.64,16.31Z"/><path class="cls-1" d="M97.89,14.27A2.84,2.84,0,0,1,99,11.88a4.47,4.47,0,0,1,2.79-.85H105v-.36a1.24,1.24,0,0,0-.58-1.07,2.77,2.77,0,0,0-1.62-.4,3.64,3.64,0,0,0-1.27.21,6.2,6.2,0,0,0-1.14.59,1.35,1.35,0,0,1-.72.2,1.16,1.16,0,0,1-.81-.3,1,1,0,0,1-.34-.72,1,1,0,0,1,.32-.72,5.35,5.35,0,0,1,4-1.41,5.77,5.77,0,0,1,3.54,1,3.2,3.2,0,0,1,1.26,2.7v5.61a1,1,0,0,1-.38.81,1.29,1.29,0,0,1-.9.35,1.33,1.33,0,0,1-.91-.35,1.08,1.08,0,0,1-.39-.83,3.54,3.54,0,0,1-3.16,1.3A4.21,4.21,0,0,1,99,16.68,3,3,0,0,1,97.89,14.27Zm2.61,0a1.13,1.13,0,0,0,.5,1,2.66,2.66,0,0,0,1.5.34,2.88,2.88,0,0,0,1.74-.53,1.67,1.67,0,0,0,.73-1.41V13h-2.82a2,2,0,0,0-1.22.32A1,1,0,0,0,100.5,14.27Z"/><path class="cls-1" d="M114.45,6.94a5.22,5.22,0,1,0,5.22,5.21A5.21,5.21,0,0,0,114.45,6.94Zm2.83,2.48L115,14.09A2.8,2.8,0,0,1,112.47,16a.67.67,0,0,1-.45-.16.54.54,0,0,1-.18-.41A.52.52,0,0,1,112,15a.67.67,0,0,1,.45-.16,1.16,1.16,0,0,0,.88-.35,4.21,4.21,0,0,0,.68-1.13l-1.88-3.92a.47.47,0,0,1-.05-.24.55.55,0,0,1,.19-.42.69.69,0,0,1,.46-.17.62.62,0,0,1,.4.12.57.57,0,0,1,.22.25L114.71,12,116.06,9a.54.54,0,0,1,.21-.25.63.63,0,0,1,.4-.12.71.71,0,0,1,.47.17.59.59,0,0,1,.19.42A.6.6,0,0,1,117.28,9.42Z"/><path class="cls-1" d="M40.58,36l.27-1.52a1.19,1.19,0,0,0-1-1.38l-1.52-.28a1.19,1.19,0,0,1-.48-2.15h0a1.22,1.22,0,0,1,.89-.2l3.88.69a1.21,1.21,0,0,1,1,1.39l-.69,3.87a1.22,1.22,0,0,1-.5.77h0A1.19,1.19,0,0,1,40.58,36Z"/><path class="cls-1" d="M62.85,36.61A.4.4,0,0,1,63,36.3a.39.39,0,0,1,.31-.13.41.41,0,0,1,.25.08.34.34,0,0,1,.14.18L65,39.89l1.31-3.46a.34.34,0,0,1,.14-.18.43.43,0,0,1,.56,0,.4.4,0,0,1,.13.31.38.38,0,0,1,0,.16l-1.71,4.3a.39.39,0,0,1-.4.27.4.4,0,0,1-.41-.27l-1.7-4.3A.38.38,0,0,1,62.85,36.61Z"/><path class="cls-1" d="M67.16,39.55a1.89,1.89,0,0,1,.42-1.31,1.57,1.57,0,0,1,1.2-.47,1.79,1.79,0,0,1,.64.11,1.22,1.22,0,0,1,.44.26,1.18,1.18,0,0,1,.26.37,1.37,1.37,0,0,1,.13.39,1.45,1.45,0,0,1,0,.35.87.87,0,0,1,0,.18,1.37,1.37,0,0,1,0,.16.52.52,0,0,1-.07.15.56.56,0,0,1-.14.09.67.67,0,0,1-.22,0H68a.7.7,0,0,0,.24.58.93.93,0,0,0,.64.2,1.28,1.28,0,0,0,.74-.24.52.52,0,0,1,.25-.08.34.34,0,0,1,.25.11.33.33,0,0,1,.1.25.35.35,0,0,1-.13.28,1.4,1.4,0,0,1-.22.16,1.58,1.58,0,0,1-.4.17,2,2,0,0,1-.59.08,1.66,1.66,0,0,1-1.25-.45A1.88,1.88,0,0,1,67.16,39.55Zm.83-.37h1.49a.76.76,0,0,0-.18-.51.64.64,0,0,0-.52-.21.77.77,0,0,0-.55.19A.76.76,0,0,0,68,39.18Z"/><path class="cls-1" d="M70.84,41V36.34a.38.38,0,0,1,.12-.28.38.38,0,0,1,.29-.12.41.41,0,0,1,.4.4v1.88A1.07,1.07,0,0,1,72,37.9a1.32,1.32,0,0,1,.59-.13,1.14,1.14,0,0,1,1.27,1.31V41a.34.34,0,0,1-.12.27.39.39,0,0,1-.29.11.36.36,0,0,1-.29-.11.33.33,0,0,1-.11-.27V39.23c0-.48-.23-.72-.67-.72a.67.67,0,0,0-.75.77V41a.34.34,0,0,1-.12.27.36.36,0,0,1-.28.11.38.38,0,0,1-.29-.11A.34.34,0,0,1,70.84,41Z"/><path class="cls-1" d="M74.52,37.25a.17.17,0,0,1,.06-.16l.63-.81a.26.26,0,0,1,.21-.1.42.42,0,0,1,.37.36.26.26,0,0,1-.09.21l-.74.68a.23.23,0,0,1-.34,0A.33.33,0,0,1,74.52,37.25Zm.1,3.69V38.22a.36.36,0,0,1,.12-.28.41.41,0,0,1,.58,0,.39.39,0,0,1,.11.28v2.72a.44.44,0,0,1-.11.29.44.44,0,0,1-.58,0A.4.4,0,0,1,74.62,40.94Z"/><path class="cls-1" d="M76.45,40.93a2.35,2.35,0,0,1,0-2.71,1.58,1.58,0,0,1,1.21-.45,1.87,1.87,0,0,1,.59.1,1.7,1.7,0,0,1,.41.21,1.12,1.12,0,0,1,.22.21.38.38,0,0,1,.08.23.35.35,0,0,1-.1.26.33.33,0,0,1-.25.1.38.38,0,0,1-.28-.12.87.87,0,0,0-.67-.3.7.7,0,0,0-.6.29,1.41,1.41,0,0,0-.21.83,1.39,1.39,0,0,0,.21.83.7.7,0,0,0,.6.29.85.85,0,0,0,.31-.06.82.82,0,0,0,.23-.11l.2-.14a.39.39,0,0,1,.23-.07.33.33,0,0,1,.25.1.36.36,0,0,1,.11.26.41.41,0,0,1-.13.28,2,2,0,0,1-.49.29,1.73,1.73,0,0,1-.71.13A1.6,1.6,0,0,1,76.45,40.93Z"/><path class="cls-1" d="M79.53,40V38.22a.36.36,0,0,1,.12-.28.38.38,0,0,1,.29-.12.38.38,0,0,1,.28.12.36.36,0,0,1,.12.28V40a.77.77,0,0,0,.15.49.65.65,0,0,0,.53.18.59.59,0,0,0,.66-.67V38.22a.36.36,0,0,1,.12-.28.41.41,0,0,1,.58,0,.36.36,0,0,1,.11.28V40a2.23,2.23,0,0,1-.06.54,1.3,1.3,0,0,1-.22.44.93.93,0,0,1-.46.32,2,2,0,0,1-.73.11,2.3,2.3,0,0,1-.62-.07A1.15,1.15,0,0,1,80,41.1a.86.86,0,0,1-.26-.31,1.17,1.17,0,0,1-.14-.38A2,2,0,0,1,79.53,40Z"/><path class="cls-1" d="M83.25,40.38v-4a.41.41,0,0,1,.11-.28.41.41,0,0,1,.58,0,.38.38,0,0,1,.12.29v4.13a.1.1,0,0,0,0,.09.16.16,0,0,0,.1,0,.4.4,0,0,1,.27.11.39.39,0,0,1,0,.52.39.39,0,0,1-.27.1.86.86,0,0,1-1-1Z"/><path class="cls-1" d="M84.87,39.58a1.92,1.92,0,0,1,.43-1.35,1.63,1.63,0,0,1,1.22-.46,1.57,1.57,0,0,1,1.2.46,2.33,2.33,0,0,1,0,2.7,1.58,1.58,0,0,1-1.2.45,1.6,1.6,0,0,1-1.21-.45A1.87,1.87,0,0,1,84.87,39.58Zm.83,0a1.36,1.36,0,0,0,.2.83.73.73,0,0,0,.62.29.71.71,0,0,0,.61-.29,1.35,1.35,0,0,0,.21-.83c0-.74-.27-1.12-.82-1.12S85.7,38.84,85.7,39.58Z"/><path class="cls-3" d="M90.52,40.85V36.67a.42.42,0,0,1,.13-.31.42.42,0,0,1,.31-.13H93.3a.34.34,0,0,1,.27.12.36.36,0,0,1,.12.27.38.38,0,0,1-.12.28.34.34,0,0,1-.27.12H91.39v1.34h1.42a.33.33,0,0,1,.27.11.4.4,0,0,1,.11.27.37.37,0,0,1-.11.27.33.33,0,0,1-.27.11H91.39v1.39h2a.37.37,0,0,1,.28.11.41.41,0,0,1,.11.28.39.39,0,0,1-.11.27.38.38,0,0,1-.28.12H91a.42.42,0,0,1-.31-.13A.42.42,0,0,1,90.52,40.85Z"/><path class="cls-3" d="M94.64,40.93a2.35,2.35,0,0,1,0-2.71,1.57,1.57,0,0,1,1.21-.45,1.92,1.92,0,0,1,.59.1,1.7,1.7,0,0,1,.41.21,1.49,1.49,0,0,1,.22.21.46.46,0,0,1,.08.23.34.34,0,0,1-.36.36.38.38,0,0,1-.28-.12.85.85,0,0,0-.66-.3.71.71,0,0,0-.61.29,1.5,1.5,0,0,0-.2.83,1.47,1.47,0,0,0,.2.83.71.71,0,0,0,.61.29.85.85,0,0,0,.31-.06,1,1,0,0,0,.23-.11l.2-.14a.38.38,0,0,1,.22-.07.34.34,0,0,1,.36.36A.37.37,0,0,1,97,41a1.78,1.78,0,0,1-1.19.42A1.58,1.58,0,0,1,94.64,40.93Z"/><path class="cls-3" d="M97.59,39.58A1.87,1.87,0,0,1,98,38.23a1.82,1.82,0,0,1,2.42,0,2.33,2.33,0,0,1,0,2.7,1.85,1.85,0,0,1-2.42,0A1.87,1.87,0,0,1,97.59,39.58Zm.83,0a1.35,1.35,0,0,0,.21.83.71.71,0,0,0,.61.29.73.73,0,0,0,.62-.29,1.35,1.35,0,0,0,.21-.83c0-.74-.28-1.12-.83-1.12S98.42,38.84,98.42,39.58Z"/><path class="cls-3" d="M101.48,40.38v-4a.41.41,0,0,1,.11-.28.41.41,0,0,1,.58,0,.38.38,0,0,1,.12.29v4.13a.1.1,0,0,0,0,.09.16.16,0,0,0,.1,0,.4.4,0,0,1,.27.11.39.39,0,0,1,0,.52.39.39,0,0,1-.27.1.86.86,0,0,1-1-1Z"/><path class="cls-3" d="M103.1,39.58a1.92,1.92,0,0,1,.43-1.35,1.63,1.63,0,0,1,1.22-.46,1.57,1.57,0,0,1,1.2.46,2.33,2.33,0,0,1,0,2.7,1.56,1.56,0,0,1-1.2.45,1.6,1.6,0,0,1-1.21-.45A1.87,1.87,0,0,1,103.1,39.58Zm.83,0a1.36,1.36,0,0,0,.2.83.73.73,0,0,0,.62.29.71.71,0,0,0,.61-.29,1.35,1.35,0,0,0,.21-.83c0-.74-.27-1.12-.82-1.12S103.93,38.84,103.93,39.58Zm.36-2.33a.23.23,0,0,1,.06-.16l.64-.81a.23.23,0,0,1,.2-.1.42.42,0,0,1,.37.36.26.26,0,0,1-.09.21l-.74.68a.23.23,0,0,1-.34,0A.33.33,0,0,1,104.29,37.25Z"/><path class="cls-3" d="M106.79,41.69a.88.88,0,0,1,.45-.76.65.65,0,0,1-.35-.58.63.63,0,0,1,.25-.51,1.21,1.21,0,0,1-.23-.78,1.19,1.19,0,0,1,.39-.94,1.58,1.58,0,0,1,1.08-.35,1.93,1.93,0,0,1,.72.13.9.9,0,0,1,.75-.35.34.34,0,0,1,.34.34.37.37,0,0,1-.1.25.33.33,0,0,1-.24.1.39.39,0,0,0-.23.06,1.27,1.27,0,0,1,.23.76,1.19,1.19,0,0,1-.39.94,1.58,1.58,0,0,1-1.08.35,2,2,0,0,1-.71-.12.18.18,0,0,0,0,.15c0,.15.14.22.43.22h.7a2.23,2.23,0,0,1,.54.06,1.57,1.57,0,0,1,.44.18.8.8,0,0,1,.3.33,1.1,1.1,0,0,1,.11.49,1,1,0,0,1-.46.85,2.31,2.31,0,0,1-1.21.29,3.68,3.68,0,0,1-.49,0,2.37,2.37,0,0,1-.46-.11,1.52,1.52,0,0,1-.38-.2.89.89,0,0,1-.25-.32A.93.93,0,0,1,106.79,41.69Zm.81,0q0,.42.87.42a1.35,1.35,0,0,0,.61-.12.34.34,0,0,0,.25-.33.3.3,0,0,0-.16-.27.87.87,0,0,0-.42-.1H108a.57.57,0,0,0-.32.16A.31.31,0,0,0,107.6,41.69Zm.29-3.06a.57.57,0,0,0-.17.43.56.56,0,0,0,.17.43.69.69,0,0,0,.49.17.69.69,0,0,0,.48-.17.57.57,0,0,0,.18-.43.58.58,0,0,0-.18-.43.69.69,0,0,0-.48-.17A.69.69,0,0,0,107.89,38.63Z"/><path class="cls-3" d="M110.63,36.94c0-.33.16-.5.48-.5a.44.44,0,0,1,.49.5.46.46,0,0,1-.13.35.49.49,0,0,1-.36.12.45.45,0,0,1-.35-.13A.46.46,0,0,1,110.63,36.94Zm.08,4V38.22a.36.36,0,0,1,.12-.28.38.38,0,0,1,.28-.12.38.38,0,0,1,.29.12.36.36,0,0,1,.12.28v2.72a.4.4,0,0,1-.12.29.38.38,0,0,1-.29.11.37.37,0,0,1-.28-.11A.4.4,0,0,1,110.71,40.94Z"/><path class="cls-3" d="M112.54,40.93a2.35,2.35,0,0,1,0-2.71,1.57,1.57,0,0,1,1.21-.45,1.92,1.92,0,0,1,.59.1,1.7,1.7,0,0,1,.41.21,1.49,1.49,0,0,1,.22.21.46.46,0,0,1,.08.23.34.34,0,0,1-.36.36.38.38,0,0,1-.28-.12.85.85,0,0,0-.66-.3.71.71,0,0,0-.61.29,1.5,1.5,0,0,0-.2.83,1.47,1.47,0,0,0,.2.83.71.71,0,0,0,.61.29.85.85,0,0,0,.31-.06,1,1,0,0,0,.23-.11l.2-.14a.38.38,0,0,1,.22-.07.34.34,0,0,1,.36.36.37.37,0,0,1-.13.28,1.78,1.78,0,0,1-1.19.42A1.58,1.58,0,0,1,112.54,40.93Z"/><path class="cls-3" d="M115.49,39.58a1.87,1.87,0,0,1,.44-1.35,1.82,1.82,0,0,1,2.42,0,2.33,2.33,0,0,1,0,2.7,1.85,1.85,0,0,1-2.42,0A1.87,1.87,0,0,1,115.49,39.58Zm.83,0a1.35,1.35,0,0,0,.21.83.71.71,0,0,0,.61.29.73.73,0,0,0,.62-.29,1.35,1.35,0,0,0,.21-.83c0-.74-.28-1.12-.83-1.12S116.32,38.84,116.32,39.58Z"/><path class="cls-3" d="M13.2,3,4,6.78a3.34,3.34,0,0,1,2.1.43,20.8,20.8,0,0,0,2,.93,3.81,3.81,0,0,0,2.24.09A2.86,2.86,0,0,0,12,6.85a6.23,6.23,0,0,0,.46-2A3.26,3.26,0,0,1,13.2,3Z"/><path class="cls-3" d="M13.2,3,4,6.78A3.41,3.41,0,0,0,5.2,5,20.6,20.6,0,0,1,6,3,3.79,3.79,0,0,1,7.5,1.33a2.8,2.8,0,0,1,2.21-.22A5.75,5.75,0,0,1,11.4,2.2,3.32,3.32,0,0,0,13.2,3Z"/><path class="cls-4" d="M6.21,4.15l.53.2.52.2L8.31,5l0,0,0,0-.45,1c-.08.18-.16.35-.23.52s-.16.34-.25.51c.07-.18,0-.3.06-.47l.21-.53c.14-.35.28-.7.43-1.05l0,.07-1-.45-.52-.23C6.41,4.37,6.38,4.23,6.21,4.15Z"/><path class="cls-4" d="M6.77,3.1l.78.3.77.31,1.54.64.05,0,0,0c-.22.52-.43,1-.66,1.54l-.33.76c-.12.25-.23.51-.35.76.1-.26.07-.47.17-.72L9,6c.2-.51.42-1,.63-1.54l0,.07L8.16,3.84,7.4,3.5C7.14,3.39,7,3.22,6.77,3.1Z"/><path class="cls-4" d="M7.56,2l1,.4,1,.41,1,.41,1,.42,0,0,0,0-.42,1c-.14.33-.28.66-.43,1l-.43,1c-.15.33-.29.66-.45,1,.13-.33.09-.59.22-.93l.41-1c.13-.34.32-.69.46-1l.42-1,0,.06-1-.42c-.34-.14-.72-.26-1.05-.41l-1-.43C8,2.39,7.88,2.17,7.56,2Z"/><path class="cls-4" d="M6.36,5.56A33.85,33.85,0,0,0,10,4.27,14,14,0,0,1,12,3.47s-1.1.65-1.94,1A35.08,35.08,0,0,1,6.36,5.56Z"/></g></g></svg>